<svg width="106" height="144" fill="none" xmlns="http://www.w3.org/2000/svg"><path d="M27.439 137.501a2 2 0 0 0 1.565 2.356l17.645 3.558a2 2 0 0 0 .79-3.921l-15.684-3.163 3.162-15.684a2 2 0 1 0-3.92-.791l-3.558 17.645ZM.452 3.961c33.356 9.497 57.927 18.52 74.492 27.71 16.648 9.237 24.694 18.355 26.035 27.809 1.343 9.463-3.9 20.186-16.292 32.988C72.363 105.2 53.383 119.56 28.293 136.23l2.213 3.331c25.136-16.7 44.416-31.255 57.055-44.312 12.572-12.987 18.996-24.927 17.379-36.332-1.619-11.415-11.16-21.37-28.055-30.744C59.907 18.754 34.977 9.632 1.547.114L.452 3.962Z" fill="#1CA306"/></svg>