<svg width="256" height="126" fill="none" xmlns="http://www.w3.org/2000/svg"><path d="m62.19 32.727 40.164 43.142-38.308-7.533-42.019 7.533 40.164-43.142Z" fill="#1CA306"/><path d="m62.19 40.945 42.667 47.935-42.667-6.848-44.522 6.848L62.19 40.945Z" fill="#1CA306"/><path d="m62.19 51.901 46.589 49.305H15.6l46.59-49.305Z" fill="#1CA306"/><path fill="#9F760D" d="M45.494 101.206h29.344v5.759H45.494z"/><path d="m202.205 32.87 40.163 43.14-38.309-7.532-42.018 7.532 40.164-43.14Z" fill="#1CA306"/><path d="m202.204 41.087 42.667 47.935-42.667-6.848-44.522 6.848 44.522-47.935Z" fill="#1CA306"/><path d="m202.203 52.043 46.59 49.304h-93.179l46.589-49.304Z" fill="#1CA306"/><path fill="#9F760D" d="M185.508 101.348h29.344v5.759h-29.344z"/><path d="m131.71 0 40.164 62.624-38.309-10.934-42.018 10.934L131.71 0Z" fill="#25671A"/><path d="m131.71 11.929 42.667 69.582-42.667-9.94-44.523 9.94L131.71 11.93Z" fill="#25671A"/><path d="m131.709 27.833 46.59 71.57h-93.18l46.59-71.57Z" fill="#25671A"/><path fill="#9F760D" d="M115.014 99.404h29.344v8.36h-29.344z"/><path d="M84.293 92.44a15.05 15.05 0 0 1-4.48-1.854c-1.376-.887-2.461-1.937-3.255-3.15-.91-1.4-1.493-2.94-1.75-4.62-.256-1.68-.21-3.313.14-4.9.35-1.61.945-3.092 1.785-4.445.864-1.47 1.949-2.695 3.255-3.675 1.33-1.003 2.87-1.715 4.62-2.135 1.75-.42 3.629-.338 5.635.245.747.21 1.4.443 1.96.7a5.355 5.355 0 0 1 1.54 1.015c.467.397.817.723 1.05.98.234.233.56.642.98 1.225.42.56.7.922.84 1.085.374.42.514.922.42 1.505a1.837 1.837 0 0 1-.805 1.33c-.466.327-1.003.455-1.61.385-.583-.07-1.038-.327-1.365-.77l-1.015-1.19a21.67 21.67 0 0 0-.735-.945 5.449 5.449 0 0 0-.63-.595 2.806 2.806 0 0 0-.805-.525 6.832 6.832 0 0 0-1.05-.35c-1.773-.467-3.406-.362-4.9.315-1.47.677-2.695 1.797-3.675 3.36-.956 1.563-1.458 3.243-1.505 5.04-.046 1.797.385 3.407 1.295 4.83.467.723 1.155 1.377 2.065 1.96.91.583 1.89.992 2.94 1.225 2.24.49 3.967.117 5.18-1.12.35-.373.747-.945 1.19-1.715.817-1.633 1.225-2.462 1.225-2.485.304-.49.735-.805 1.295-.945.584-.163 1.132-.105 1.645.175a1.91 1.91 0 0 1 1.015 1.225 1.788 1.788 0 0 1-.175 1.505c-.14.233-.268.467-.385.7l-.42.84-.35.735c-.583 1.12-1.19 2.007-1.82 2.66a9.122 9.122 0 0 1-2.905 1.96c-1.096.443-2.181.665-3.255.665a16.422 16.422 0 0 1-3.185-.245Zm19.051-.874c-1.47-.817-2.578-2.007-3.325-3.57a11.392 11.392 0 0 1-1.12-4.97c0-1.727.362-3.372 1.085-4.935.747-1.563 1.855-2.765 3.325-3.605.7-.397 1.599-.63 2.695-.7.35-.35.77-.56 1.26-.63.514-.07.992.035 1.435.315.56.373 1.389.863 2.485 1.47.934.537 1.622.98 2.065 1.33.7.63 1.225 1.377 1.575 2.24.374.863.665 1.983.875 3.36a10.598 10.598 0 0 1-.42 4.83c-.513 1.587-1.341 2.905-2.485 3.955-1.236 1.143-2.671 1.808-4.305 1.995-1.633.187-3.348-.175-5.145-1.085Zm2.065-3.78c1.727.957 3.209.863 4.445-.28.607-.56 1.062-1.283 1.365-2.17.304-.91.374-1.867.21-2.87-.233-1.61-.571-2.59-1.015-2.94-.21-.187-.641-.467-1.295-.84l-1.26-.7a5.446 5.446 0 0 1-.665.035h-.385c-.233 0-.408.012-.525.035-.42.023-.7.07-.84.14-.676.397-1.225 1.027-1.645 1.89-.396.863-.595 1.855-.595 2.975 0 1.097.199 2.077.595 2.94.397.84.934 1.435 1.61 1.785Zm23.236 4.445c-1.587.513-3.243.49-4.97-.07-1.423-.467-2.59-1.178-3.5-2.135-.91-.98-1.517-2.053-1.82-3.22-.28-1.19-.385-2.38-.315-3.57.093-1.19.338-2.333.735-3.43a11.911 11.911 0 0 1 1.785-3.08 8.262 8.262 0 0 1 2.695-2.17c1.097-.56 2.31-.782 3.64-.665 1.33.117 2.625.595 3.885 1.435.653.443 1.248 1.12 1.785 2.03l.49.805c.14.257.268.455.385.595.327.467.432.992.315 1.575a2.078 2.078 0 0 1-.84 1.365c-.443.35-.957.478-1.54.385a2.24 2.24 0 0 1-1.4-.875 9.698 9.698 0 0 1-.595-.945l-.42-.735c-.233-.373-.42-.607-.56-.7-1.19-.817-2.287-.968-3.29-.455-1.027.513-1.82 1.505-2.38 2.975-.607 1.563-.712 2.987-.315 4.27.42 1.283 1.26 2.135 2.52 2.555.887.257 1.692.268 2.415.035.14-.023.35-.175.63-.455l.595-.595c.327-.303.595-.548.805-.735.49-.35 1.015-.49 1.575-.42.583.047 1.05.303 1.4.77.373.467.525.992.455 1.575s-.327 1.05-.77 1.4c-.14.093-.315.245-.525.455l-.63.63c-.747.7-1.493 1.167-2.24 1.4Zm12.386-.49a2.25 2.25 0 0 1-1.505.805 2.04 2.04 0 0 1-1.575-.455c-.467-.397-.735-.887-.805-1.47-.094-.933-.175-1.867-.245-2.8-.07-.957-.117-2.03-.14-3.22l-.07-2.73c0-.63-.012-1.633-.035-3.01v-2.625a1.977 1.977 0 0 1 .595-1.54c.443-.443.956-.665 1.54-.665a1.931 1.931 0 0 1 1.54.63c.443.42.665.922.665 1.505.023.583.035 1.423.035 2.52v2.1c2.146-.07 4.48-.105 7-.105l-.105-4.515a2.086 2.086 0 0 1 .595-1.575c.42-.443.921-.665 1.505-.665a2.09 2.09 0 0 1 1.575.595c.443.42.665.922.665 1.505.21 7.21.326 11.982.35 14.315a2.096 2.096 0 0 1-2.135 2.205 2.095 2.095 0 0 1-2.205-2.135c-.047-1.633-.082-3.43-.105-5.39-2.567.023-4.912.07-7.035.14.07 1.773.186 3.43.35 4.97a2.096 2.096 0 0 1-.455 1.61Zm18.767.77a2.033 2.033 0 0 1-1.575-.525 2.163 2.163 0 0 1-.735-1.505c-.21-3.08-.479-7.875-.805-14.385a2.031 2.031 0 0 1 .525-1.575c.42-.443.933-.677 1.54-.7a1.978 1.978 0 0 1 1.575.56c.443.397.676.898.7 1.505l.245 4.2a34.33 34.33 0 0 1 2.38-.385c2.006-.257 3.616-.187 4.83.21 1.47.49 2.66 1.248 3.57 2.275.933 1.027 1.4 2.217 1.4 3.57.023 1.33-.409 2.543-1.295 3.64-.864 1.073-2.03 1.925-3.5 2.555-.56.233-1.144.42-1.75.56-.584.117-1.237.175-1.96.175-.7 0-1.225-.012-1.575-.035-.35 0-.934-.035-1.75-.105-.794-.07-1.225-.117-1.295-.14-.164.07-.339.105-.525.105Zm1.89-4.34c1.026.117 1.995.175 2.905.175.91-.023 1.703-.175 2.38-.455.56-.233 1.003-.502 1.33-.805.35-.303.56-.548.63-.735.093-.21.14-.385.14-.525 0-.163-.035-.327-.105-.49-.07-.163-.269-.373-.595-.63-.327-.257-.759-.478-1.295-.665-.56-.187-1.517-.187-2.87 0-.63.07-1.54.222-2.73.455l.21 3.675Zm12.425 2.135c0-6.977.058-11.725.175-14.245a2.04 2.04 0 0 1 .7-1.505c.443-.42.968-.607 1.575-.56a2.046 2.046 0 0 1 1.505.7c.42.443.606.968.56 1.575-.117 2.193-.175 6.872-.175 14.035 0 .607-.21 1.12-.63 1.54-.42.42-.934.63-1.54.63-.607 0-1.12-.21-1.54-.63-.42-.42-.63-.933-.63-1.54Z" fill="#fff"/></svg>